<?xml version="1.0" encoding="UTF-8"?>
<svg id="Layer_1" xmlns="http://www.w3.org/2000/svg" version="1.1" xmlns:xlink="http://www.w3.org/1999/xlink" viewBox="0 0 3299.06 3299.06">
  <!-- Generator: Adobe Illustrator 30.0.0, SVG Export Plug-In . SVG Version: 2.1.1 Build 123)  -->
  <defs>
    <style>
      .st0 {
        stroke: url(#radial-gradient);
      }

      .st0, .st1 {
        fill: none;
        stroke-miterlimit: 10;
        stroke-width: 2px;
      }

      .st2 {
        fill: url(#linear-gradient10);
      }

      .st3 {
        fill: url(#linear-gradient1);
      }

      .st4 {
        fill: url(#linear-gradient9);
      }

      .st5 {
        fill: url(#linear-gradient8);
      }

      .st6 {
        fill: url(#linear-gradient11);
      }

      .st7 {
        fill: #060a21;
      }

      .st8 {
        fill: url(#radial-gradient1);
      }

      .st9 {
        filter: url(#drop-shadow-1);
      }

      .st10 {
        fill: url(#linear-gradient7);
      }

      .st11 {
        fill: url(#linear-gradient4);
      }

      .st1 {
        stroke: url(#linear-gradient2);
      }

      .st12 {
        fill: url(#linear-gradient5);
      }

      .st13 {
        fill: url(#linear-gradient3);
      }

      .st14 {
        fill: url(#radial-gradient2);
      }

      .st15 {
        fill: url(#linear-gradient6);
      }

      .st16 {
        fill: url(#linear-gradient);
      }
    </style>
    <linearGradient id="linear-gradient" x1="436.1" y1="1305.94" x2="1591.2" y2="1946.03" gradientTransform="translate(0 3300) scale(1 -1)" gradientUnits="userSpaceOnUse">
      <stop offset=".07" stop-color="#996731"/>
      <stop offset=".31" stop-color="#af874f"/>
      <stop offset=".85" stop-color="#ead89a"/>
      <stop offset="1" stop-color="#fbf0b1"/>
    </linearGradient>
    <linearGradient id="linear-gradient1" x1="707.5" y1="1650.86" x2="1409.66" y2="1650.86" gradientTransform="translate(0 3300) scale(1 -1)" gradientUnits="userSpaceOnUse">
      <stop offset="0" stop-color="#050829"/>
      <stop offset="1" stop-color="#212e4c"/>
    </linearGradient>
    <radialGradient id="radial-gradient" cx="924.3" cy="1671.58" fx="924.3" fy="1671.58" r="235.84" gradientTransform="translate(0 3300) scale(1 -1)" gradientUnits="userSpaceOnUse">
      <stop offset="0" stop-color="#faf1af"/>
      <stop offset=".12" stop-color="#f6eba9"/>
      <stop offset=".28" stop-color="#ebdc9a"/>
      <stop offset=".45" stop-color="#dac280"/>
      <stop offset=".63" stop-color="#c29f5d"/>
      <stop offset=".76" stop-color="#ae813f"/>
    </radialGradient>
    <linearGradient id="linear-gradient2" x1="1094.75" y1="1603.55" x2="1363.89" y2="1603.55" gradientTransform="translate(0 3300) scale(1 -1)" gradientUnits="userSpaceOnUse">
      <stop offset="0" stop-color="#faf1af"/>
      <stop offset=".12" stop-color="#f6eba9"/>
      <stop offset=".28" stop-color="#ebdc9a"/>
      <stop offset=".45" stop-color="#dac280"/>
      <stop offset=".63" stop-color="#c29f5d"/>
      <stop offset=".76" stop-color="#ae813f"/>
    </linearGradient>
    <radialGradient id="radial-gradient1" cx="1222.45" cy="1739.54" fx="1222.45" fy="1739.54" r="595.52" gradientTransform="translate(0 3300) scale(1 -1)" gradientUnits="userSpaceOnUse">
      <stop offset="0" stop-color="#faf1af"/>
      <stop offset=".12" stop-color="#f6eba9"/>
      <stop offset=".28" stop-color="#ebdc9a"/>
      <stop offset=".45" stop-color="#dac280"/>
      <stop offset=".63" stop-color="#c29f5d"/>
      <stop offset=".76" stop-color="#ae813f"/>
    </radialGradient>
    <radialGradient id="radial-gradient2" cx="1259.72" cy="1768.52" fx="1259.72" fy="1768.52" r="595.52" gradientTransform="translate(0 3300) scale(1 -1)" gradientUnits="userSpaceOnUse">
      <stop offset="0" stop-color="#faf1af"/>
      <stop offset=".12" stop-color="#f6eba9"/>
      <stop offset=".28" stop-color="#ebdc9a"/>
      <stop offset=".45" stop-color="#dac280"/>
      <stop offset=".63" stop-color="#c29f5d"/>
      <stop offset=".76" stop-color="#ae813f"/>
    </radialGradient>
    <filter id="drop-shadow-1" x="1506" y="1804.06" width="1131" height="216" filterUnits="userSpaceOnUse">
      <feOffset dx="-3" dy="-6"/>
      <feGaussianBlur result="blur" stdDeviation="5"/>
      <feFlood flood-color="#ffc200" flood-opacity=".75"/>
      <feComposite in2="blur" operator="in"/>
      <feComposite in="SourceGraphic"/>
    </filter>
    <linearGradient id="linear-gradient3" x1="1680.54" y1="2194.57" x2="1745.52" y2="1806.47" gradientTransform="matrix(1,0,0,1,0,0)" xlink:href="#linear-gradient1"/>
    <linearGradient id="linear-gradient4" x1="1972.32" y1="2243.42" x2="2037.29" y2="1855.32" gradientTransform="matrix(1,0,0,1,0,0)" xlink:href="#linear-gradient1"/>
    <linearGradient id="linear-gradient5" x1="2368.84" y1="2309.81" x2="2433.82" y2="1921.71" gradientTransform="matrix(1,0,0,1,0,0)" xlink:href="#linear-gradient1"/>
    <linearGradient id="linear-gradient6" x1="2207.06" y1="2282.72" x2="2272.04" y2="1894.62" gradientTransform="matrix(1,0,0,1,0,0)" xlink:href="#linear-gradient1"/>
    <linearGradient id="linear-gradient7" x1="2497.2" y1="2331.3" x2="2562.17" y2="1943.2" gradientTransform="matrix(1,0,0,1,0,0)" xlink:href="#linear-gradient1"/>
    <linearGradient id="linear-gradient8" x1="1535.61" y1="2170.3" x2="1600.58" y2="1782.21" gradientTransform="matrix(1,0,0,1,0,0)" xlink:href="#linear-gradient1"/>
    <linearGradient id="linear-gradient9" x1="2260.2" y1="2291.62" x2="2325.18" y2="1903.52" gradientTransform="matrix(1,0,0,1,0,0)" xlink:href="#linear-gradient1"/>
    <linearGradient id="linear-gradient10" x1="1739.35" y1="2204.42" x2="1804.33" y2="1816.32" gradientUnits="userSpaceOnUse">
      <stop offset="0" stop-color="#050829"/>
      <stop offset=".44" stop-color="#212e4c"/>
    </linearGradient>
    <linearGradient id="linear-gradient11" x1="2319.39" y1="2301.53" x2="2384.36" y2="1913.43" gradientTransform="matrix(1,0,0,1,0,0)" xlink:href="#linear-gradient1"/>
  </defs>
  <path class="st16" d="M1440.76,1844.5v-389.93c0-13.1-7.06-25.19-18.47-31.63l-346.61-195.67c-11.08-6.26-24.63-6.26-35.71,0l-346.61,195.67c-11.41,6.44-18.47,18.53-18.47,31.63v389.93c0,13.1,7.06,25.19,18.47,31.63l346.61,195.67c11.08,6.26,24.63,6.26,35.71,0l346.61-195.67c11.41-6.44,18.47-18.53,18.47-31.63Z"/>
  <path class="st3" d="M1409.65,1494.12v310.03c0,26.52-14.31,51.11-37.37,64.15l-277.59,157.14c-10.99,6.22-23.48,9.52-36.12,9.52s-25.13-3.3-36.14-9.52l-277.56-157.14c-23.06-13.04-37.37-37.63-37.37-64.15v-310.03c0-26.55,14.31-51.11,37.37-64.17l277.59-157.11c10.99-6.22,23.48-9.52,36.12-9.52s25.13,3.3,36.12,9.52l277.59,157.11c23.06,13.06,37.37,37.63,37.37,64.17h-.01Z"/>
  <path class="st0" d="M1084.22,1339.11c-29.4-2.26-54.32,21.48-54.32,50.97v83.18h-121.06c-40.74,0-77.61,16.5-104.3,43.19-26.69,26.71-43.19,63.59-43.19,104.3,0,81.46,66.04,147.49,147.49,147.49h121.06v149.64h28.67c15.84,0,28.67-12.83,28.67-28.67v-549.56c-.24-.24-1.32-.4-3.02-.54h0ZM908.89,1718.05c-47.86,0-86.81-42.44-86.81-94.61s38.95-94.61,86.81-94.61h121.02v189.22h-121.02Z"/>
  <path class="st1" d="M1096.88,1475.5l196.14,235.99-174.92,206.39h61.59l162.77-188.88c13.18-15.3,20.43-34.82,20.43-55.02v-110.5l-41.92,40.37v69.87l-64.69-81.77,99.88-116.44h-62.62l-67.28,81.25-67.8-81.25h-61.59.01Z"/>
  <path class="st8" d="M1084.22,1339.11c-29.4-2.26-54.32,21.48-54.32,50.97v83.18h-121.06c-40.74,0-77.61,16.5-104.3,43.19-26.69,26.71-43.19,63.59-43.19,104.3,0,81.46,66.04,147.49,147.49,147.49h121.06v149.64h28.67c15.84,0,28.67-12.83,28.67-28.67v-549.56c-.24-.24-1.32-.4-3.02-.54h0ZM908.89,1718.05c-47.86,0-86.81-42.44-86.81-94.61s38.95-94.61,86.81-94.61h121.02v189.22h-121.02Z"/>
  <path class="st14" d="M1096.88,1475.5l196.14,235.99-174.92,206.39h61.59l162.77-188.88c13.18-15.3,20.43-34.82,20.43-55.02v-110.5l-41.92,40.37v69.87l-64.69-81.77,99.88-116.44h-62.62l-67.28,81.25-67.8-81.25h-61.59.01Z"/>
  <g>
    <path class="st7" d="M1524.22,1475.59s45.31-.09,73.32-.09c48.34,0,83.21,5.32,107,25.27,25.32,20.33,40.67,51.41,40.67,95.15,0,46.42-15.73,80.57-40.28,102.82-25.71,23.4-67,29.84-117.26,29.84h-63.44v-252.98h-.01ZM1571.41,1689.33h27.29c61.39.38,101.44-26.52,101.44-92.12.38-56.78-37.05-82.55-96.13-82.55-14.96,0-22.77.17-32.6.35v174.32h0Z"/>
    <path class="st7" d="M1807.18,1496.28c0,13.66-10.25,25.05-26.57,25.05s-25.81-11.39-25.81-25.05c0-14.42,10.63-25.43,26.19-25.43s25.81,11.01,26.19,25.43h0ZM1757.46,1728.57v-180.68h46.69v180.68h-46.69Z"/>
    <path class="st7" d="M1972.41,1704.62c0,35.94-7.21,61.66-24.74,77.87-17.18,15.85-41.57,20.79-64.59,20.79-21.3,0-43.97-4.93-58.4-13.74l9.28-32.77c10.65,6.34,28.52,13.04,48.78,13.04,27.48,0,48.1-14.8,48.1-51.79v-14.8h-.69c-9.62,15.15-26.45,25.37-48.78,25.37-41.57,0-71.11-35.23-71.11-83.86,0-56.37,35.73-90.55,75.92-90.55,25.76,0,40.54,12.68,48.44,26.78h.69l1.72-22.9h36.76c-.69,11.63-1.37,25.72-1.37,49.33v97.24h-.01ZM1930.15,1626.75c0-4.23-.34-8.1-1.37-11.63-4.47-15.85-16.49-27.83-34.35-27.83-23.71,0-41.23,21.14-41.23,56.02,0,29.24,14.43,52.85,40.88,52.85,15.8,0,29.55-10.57,34.35-26.43,1.37-4.23,1.72-10.22,1.72-15.15v-27.83Z"/>
    <path class="st7" d="M2039.29,1728.66l-62.43-169.67h47.44l35.48,98.5,4.66,16.04,5.18-19.15,31.42-95.4h45.69l-47.61,124.9-44.51,105.58h-49.68l34.38-60.81h-.02Z"/>
    <path class="st7" d="M2151.14,1609.78c0-19.45-.68-35.78-1.35-50.37h36.12l2.02,25.36h1.01c7.43-13.2,25.31-29.18,52.65-29.18,28.69,0,58.39,19.11,58.39,72.6v100.39h-41.52v-95.52c0-24.31-8.77-42.73-31.39-42.73-16.54,0-28.01,12.16-32.4,25.01-1.35,3.47-2.03,8.68-2.03,13.55v99.69h-41.51v-118.8h.01Z"/>
    <path class="st7" d="M2351.07,1656.16c1.05,30.73,24.79,44,52.38,44,19.9,0,33.87-3.14,47.14-7.68l6.29,29.33c-14.67,6.29-34.92,10.82-59.36,10.82-55.17,0-87.64-33.87-87.64-85.9,0-47.14,28.63-91.48,83.1-91.48s73.33,45.39,73.33,82.75c0,8.03-.7,14.32-1.4,18.16h-113.84ZM2425.8,1626.13c.35-15.71-6.63-41.55-35.26-41.55-26.54,0-37.71,24.09-39.46,41.55h74.72Z"/>
    <path class="st7" d="M2506.41,1558.92l20.21,32.05c5.57,9.06,10.45,17.42,15.33,26.13h.7c4.88-9.41,9.75-18.11,14.98-26.82l18.81-31.35h46.68l-56.78,81.52,57.83,88.14h-48.77l-20.55-33.79c-5.57-9.06-10.45-18.11-15.33-27.52h-.7c-4.88,9.76-10.1,18.12-15.33,27.52l-19.51,33.79h-47.38l58.88-86.4-56.79-83.26h47.73,0Z"/>
  </g>
  <g class="st9">
    <g>
      <path class="st13" d="M1627.71,1962.6c-.8-.59-.88-.69-.88-1.64,0-2.17,3.54-11.07,2.87-11.92-6.26,4-12.05,8.97-19.14,11.55-10.82,3.95-29.01,4.19-31.03-10.43-3.17-22.97,24.13-55.04,48.13-51.32,5.63.87,8.83,5.81,8.24,11.29-1.3,12.07-14.87,20.44-25.12,24.36-2.92,1.12-11.44,2.81-12.94,3.81-3.74,2.47-3.23,17.44,7.42,17.06s26.93-12.8,31.21-22.29c11.99-26.57,20.14-57.2,32.98-83.46,2.36-4.83,3.71-6.36,9.37-7.38,2.01-.36,8.24-.94,10.29-.89,1.24.03,1.37-.22,1.22,1.22-12.47,26.62-25.52,53.1-35.09,80.96,4.15-2.79,8.18-5.9,11.97-9.16,5.62-4.84,18.52-19.64,25.09-20.37,1.34-.15,4.89-.33,5.65.76.93,2.55.37,5.42-1.64,7.23l-29.96,19.66c-.46,2.9,9.05,25.34,11.37,28.44,4.76,6.39,9.11,3.58,13.83-1.03,7.31-7.15,16.2-26.48,17.73-36.5.58-3.81-.94-6.3-.23-9.79.61-1.01,6.82-2.38,8-2.38h11.56l-4.78,16.75c8.03-6.66,16.3-19.09,28.19-18.29,9.88.67,8.11,9.4,6.13,16.32-2.85,9.91-11.29,22.33-13.23,31.43-3.13,14.76,13.37-.61,16.72-4.81l15.82-39.6,17.34-2.59c.88.9-8.78,20.4-9.94,23.15-2.04,4.86-10.5,24.32-9.86,28.09s2.89,3.14,5.63,1.97c5.22-2.23,15.47-13.45,18.06-18.62,10.37-20.75,18.33-47.74,27.63-69.68,1.73-4.09,6.91-17.67,10.02-19.49,4.25-2.5,11.86-1.97,16.69-2.05l-35.08,80.55c.56.67,12.69-9.32,13.93-10.39,5-4.33,14.94-16.09,20.93-17.34,7-1.46,10.84,1.88,5.53,7.52-4.64,4.93-26.86,14.83-28.88,18.63-.36.68-.3,1.07-.23,1.77.35,3.25,5.5,15.67,7.17,19.24,7.04,15.11,10.06,14.94,21.03,2.91,1.66-1.82,4.99-8,7.17-8.01.78,0,1.93.74,1.97,1.21.11,1.09-6.7,10.43-7.98,11.95-6.39,7.58-16.22,16.24-26.86,11.75-8.33-3.51-12.13-22.8-14.58-30.9-.34-1.12.5-1.41-1.59-1.16l-11.58,31.9h-13.96l2.38-12.76c-8.37,9.61-34.32,25.04-32.7.8-6.36,4.64-15.91,13.5-24.32,12.8-12.31-1.02-5.08-18.64-2.37-25.54,2.21-5.62,10.84-21.02,9.95-25.93-.62-3.45-4.71-1.01-6.95.22-7.99,4.38-16.25,17.2-20.06,25.4-3.77,8.13-5.48,17.61-10.08,25.01h-13.96l2.38-9.57c-5.59,4.9-11.27,11.12-19.41,10.86-14.99-.48-16.36-23.75-21.66-34l-11.96,32.71h-13.56,0ZM1598.6,1933.08c8.99-1.2,18.45-7.98,22.99-15.69,7.21-12.25,1.31-18.05-9.05-7.45-6.08,6.22-10.58,15.18-13.94,23.14h0Z"/>
      <path class="st11" d="M1923.2,1900.39c-1.89,3.84-3.83,7.76-5.4,11.75-3.54,9.01-8.49,21.51-10.78,30.69-.92,3.68-2.9,9.1.76,11.67,4.91,1.69,11.61-5.9,14.15-9.52,9.09-12.92,11.17-29.31,18.35-43.06l16.41-2.32c.79.77-6.84,17.29-7.77,19.74-2.55,6.66-8.58,20.83-9.58,27.11-3,18.95,17.59-.79,20.93-7.78,5.41-11.33,8.84-25.44,13.96-37.1.21-1.62-.05-1.02-1.16-1.17-2.35-.32-5.09.37-7.48-.1-2.85-8.07,6.23-4.54,11.07-5.86,1.93-1.16,6.77-19.23,9.99-22.71,2.34-2.53,16.38-4.33,16.33-2.81l-9.58,25.91h11.56c1.72,0,1.38,4.67-.93,5.45s-12.16-.78-13.12.6l-16.47,43.98c-2.38,12.73,7.11,9.85,14.09,4.53,11.6-8.85,11.31-16.28,18.39-27.07,9.77-14.88,33.57-32.97,50.5-18.84l18.1-7.05c-3.75,9.85-8.92,19.22-12.9,28.97-2.34,5.72-7.26,16.47-8.27,22.03-1.88,10.3,7.04,6.25,11.98,2.41,10.65-8.26,20.46-23.89,22.56-37.26.64-4.1-1.37-5.95-1.24-7.65.41-5.32,16.55-4.39,20.57-4.52l-3.59,15.15c5.32-4.83,10.43-11.83,17.15-14.75s17.44-3.84,18.37,5.58c1.17,11.83-10.32,28.27-13.04,39.63-.52,2.17-.92,4.26-.41,6.5,1.47,4.3,8.13-.74,10.17-2.33,3.37-2.62,14.35-16.59,15.76-16.96,1.25-.33,2.71.15,2.56,1.75-5.59,9.26-19.38,27.2-30.61,28.43-32.51,3.57-.97-37.81-.41-49.94.05-1.17-.21-2.02-1.12-2.78-4.36-3.49-14.55,6.88-17.2,10.06-10.94,13.15-11.39,24.9-17.51,39.11-.31.72-1.47,2.74-2.04,2.74h-15.55l5.58-15.15-17.51,13.99c-10.16,4.45-22.28,2.55-21.58-10.81-10.33,12.88-38.97,20.65-39.08-3.19-6.9,6-13.87,13.95-23.61,15.07-9.11,1.05-17.63-1.08-17.07-11.88-7.62,6.38-15.73,14.42-26.66,12.71-6.29-.98-6.92-6.62-7.63-11.91-9.94,10.51-34.66,22.11-32.68-2.78.64-8.11,10.12-36.6,13.94-44.28.83-1.66,2.89-3.98,4.79-3.98h13.96,0ZM2017.52,1952.03c.72.66,3.77,1.57,4.84,1.55,10.36-.16,22.48-22.19,25.65-30.86,1.65-4.5,4.9-17.86-2.43-18.31-7.23-.45-18.82,14.15-22.22,19.98-3.14,5.39-11.24,22.69-5.84,27.64Z"/>
      <path class="st12" d="M2399.34,1962.6l3.18-11.17c-8.11,9.54-28.43,21.58-29.91.79l-7.17,6.39c-6.4,5.13-19.62,8.14-23.29-1.44-7.69-20.11,19.2-64.49,42.87-57.22,2.17.67,4.28,4.54,5.77,4.31l15.31-7.06c1.15.48.05,1.51-.23,2.16-4.32,9.75-19.61,43.74-18.55,52.51.56,4.59,4.82,2.35,7.63.38,10.5-7.37,19.45-26.35,20.92-38.89.45-3.88-.97-6.66-.11-9.85,5.73-2.04,11.82-2.59,17.86-2.3l-5.18,19.94c5.28-7.39,20.7-25.85,30.93-20.57,4.82,2.48,2.75,9.24,1.76,13.38-2.15,8.95-7.72,18.6-10.77,27.51-.86,2.5-5.15,12.45-1.2,12.91,5.15-1.78,11.57-6.54,13.59-11.69,3.36-8.58,3.94-14.81,9.32-23.38,13.03-20.76,31.19-23.44,54.08-18.09-10.36,18.74-15.62,40.05-23.33,60-7.9,20.44-19.87,52.46-47.16,49.16-8.48-1.02-14.07-6.98-11.9-15.72,3.63-14.65,30.52-20.98,42.51-26.87l4.78-13.16c-7.17,6.32-22.89,15.09-27.95,2.03-.6-1.55-.31-5.92-1.94-5.22-4.84,6.76-25.79,20.48-28.13,5.78-1.58-9.91,9.66-29.03,12.92-39.33.99-3.12,2.4-6.92-2.79-5.2-6.71,2.21-18.24,19.94-21.37,26.49-3.63,7.59-5.23,16.16-9.29,23.41h-13.16ZM2379.19,1905.32c-7.02,1.52-16.77,18.91-19.31,25.39-2.33,5.96-6.95,19.57-.43,23.6,9.9,3.03,20.45-23.98,22.58-30.96,1.37-4.5,6.55-20.06-2.84-18.03ZM2500.42,1905.36c-10.74,2.25-23.1,30.9-23.65,41.01-.7,12.92,8.33,8.34,13.91,1.88,4.7-5.45,14.98-30.84,15.55-37.9.41-5.02-.71-6.07-5.81-5h0ZM2483.88,1973.77c-10.31,2.58-28.95,14.93-26.14,27.34.65,2.86,3.44,4.82,6.4,4.42,9.23-1.26,17.75-23.55,19.75-31.76h-.01Z"/>
  <path class="st15" d="M2254.99,1899.61c3.34,5.8,6.63,11.31,9.16,17.55,9.82,24.26,19.79,75.37,53.44,75.81,7.31.1,13.04-2.49,18.35-7.24,1.7-1.52,1.97-4.62,5.18-3.98-1.84,13.37-22.27,19.51-33.92,19.17-42.73-1.26-50.16-61.42-60.19-92.55-1.88-.41-1.28.28-1.78,1.03-2.88,4.37-5.37,12.56-7.9,17.6-10.06,20.09-24.66,43.8-50.93,38.39l-.8-2.79c16.6,2.03,25.94-18.01,32.04-30.57,15.49-31.92,23.63-72.17,53.29-94.26-21.36-7.18-46.67-1.16-58.06,19.3-3.83,6.89-8.03,21.35-2.93,28.14,3.39,4.51,8.64.63,12.34,3.62.6,2.87-7.17,4.85-9.25,5.09-20.26,2.32-24.53-15.21-18.55-31.31,8.95-24.12,41-35.7,64.89-33.99,4.9.35,10.25,2.09,15.13,2.41,6.66.43,12.3-.68,18.77-1.62.22,6.87-8.65,5.15-13.57,9.15-8.89,7.22-25.92,44.83-28.88,56.46-.16.65-1.43,2.02.56,1.36,17.19-5.71,36.42-33.76,48.66-47.05,9.3-10.1,26.43-28.15,41.75-23.39,3.52,1.09,9.46,8.93,5.3,9.84-1.05.23-3.63-4.92-8.72-4.81-14.75.29-34.24,28.04-43.9,38.33-11.29,12.02-23.67,24.57-39.49,30.31h0Z"/>
  <path class="st10" d="M2609.1,1932.3c1.72,1.5-14.34,19.82-16.33,21.55-11.61,10.14-32.68,16.28-30.73-6.4-8.27,10.08-36.84,24.76-45.1,8.82-8.45-16.32,11.32-46.29,26.46-53.38,11.76-5.51,27.67-5.23,22.67,12.3-2.71,9.5-15.31,17.28-23.98,20.69-6.54,2.58-11.97.33-11.94,9.58.07,21.86,26.61,4.16,32.69-4.78,3.9-5.73,9.78-28.85,12.95-37.29,5.25-13.94,19-50.97,31.96-57.37,6.86-3.39,16.49-4.07,16.4,6.04-.13,15.79-21.48,50.73-32.2,62.7-2.24,2.5-7.81,6.48-9.08,8.47-1.81,2.84-6.47,21.02-6.54,24.62-.31,16.09,19.11-2.53,23.17-7.2,2.94-3.38,4.54-9.48,9.59-8.35h.01ZM2586.78,1913.15c9.42-10.49,17.09-23.63,23.01-36.4,2.6-5.62,6.25-13.53,7.7-19.42.36-1.48,2.05-6.74-.02-7.18-2.9-.62-10.13,13.08-11.44,15.66-7.68,15.13-13.48,31.41-19.25,47.34h0ZM2533.34,1933.89c9.03-1.98,17-8.43,21.38-16.5,2.02-3.73,5.44-14.24-2.26-11.87-6.86,2.11-17.76,21.04-19.11,28.37h0Z"/>
  <path class="st5" d="M1653.62,1828.61c1.12,1.48-3.94,6.29-5.18,7.17-7.86,5.61-21.78,5.15-31.09,4.78-4.19-.17-7.14-2.94-10.82.38-13.74,12.43-24.45,59.65-32.07,78.79-8.17,20.53-22.98,50.59-50.04,42.86-1.7-2.31,7.1-3.15,8.54-3.81,15.43-7.1,28.46-54.42,34.73-70.55,7.21-18.55,15.02-38.37,31.68-50.45.1-3.04-26.95-3.84-29.88-3.58-18.93,1.7-34.55,20.12-31.33,39.28,1.43,8.48,7.38,9.4,14.16,12.16-2.66,6.04-14.06,3.91-18.76,1.21-9.38-5.39-9.55-16.82-6.96-26.15,3.89-14.05,16.18-24.5,29.42-29.6,32.37-12.48,65.33,9.42,97.59-2.49h0Z"/>
  <path class="st4" d="M2290.08,1962.6c3.25-15.85,12.09-31.44,15.72-46.89.42-1.77,1.06-3.49,1.09-5.35.05-3.2-2.02-5.01-.68-7.39l18.16-2.58-5.18,21.53c5.58-7.65,14.12-22.25,24.73-22.4,12.21-.17,3.51,14.8-1.6,19.2l-4.39-5.16c-4.71-2.15-10.71,3.83-13.53,7.18-9.95,11.84-14.68,27.09-18.36,41.85h-15.96Z"/>
  <path class="st2" d="M1792.17,1868.66c15.72-3.59,14.15,17.86,1.43,19-12.99,1.17-10.87-16.85-1.43-19Z"/>
</svg>
